<svg width="80" height="139" viewBox="0 0 80 139" fill="none" xmlns="http://www.w3.org/2000/svg">
<path d="M40.148 6.96144C45.1544 6.96021 50.0732 8.25423 54.4116 10.7138C58.75 13.1735 62.3557 16.7123 64.8674 20.9758C67.3791 25.2393 68.7086 30.0778 68.7227 35.0065C68.7368 39.9351 67.435 44.7809 64.9477 49.0582C66.6731 49.3008 68.2957 50.0116 69.6339 51.1109C70.972 52.2103 71.9727 53.6547 72.5239 55.2825C73.0751 56.9102 73.1549 58.6569 72.7545 60.3268C72.3541 61.9967 71.4893 63.5239 70.2569 64.7371C69.0245 65.9504 67.4733 66.8018 65.777 67.196C64.0808 67.5902 62.3066 67.5115 60.6532 66.9689C58.9998 66.4263 57.5325 65.4411 56.4158 64.1237C55.2992 62.8064 54.5772 61.2089 54.3308 59.5103C53.9772 59.7092 53.6136 59.8982 53.2499 60.0871C52.7446 63.1496 51.149 65.9351 48.7486 67.9454C46.3481 69.9556 43.2994 71.0595 40.148 71.0595C36.9965 71.0595 33.9478 69.9556 31.5474 67.9454C29.1469 65.9351 27.5513 63.1496 27.046 60.0871C26.6824 59.8982 26.3187 59.7092 25.9651 59.5103C25.7193 61.2105 24.9971 62.8096 23.8794 64.1281C22.7618 65.4466 21.293 66.4323 19.6379 66.9746C17.9828 67.5169 16.2069 67.5944 14.5095 67.1982C12.8122 66.8021 11.2606 65.9481 10.0289 64.7321C8.79724 63.516 7.93419 61.9861 7.53667 60.314C7.13916 58.6419 7.2229 56.8938 7.7785 55.2659C8.3341 53.6381 9.33956 52.1949 10.682 51.0983C12.0245 50.0018 13.6509 49.2953 15.3785 49.0582C12.8925 44.7831 11.5908 39.94 11.6035 35.0139C11.6163 30.0878 12.9431 25.2514 15.4512 20.9887C17.9593 16.7261 21.5607 13.1868 25.8949 10.725C30.2292 8.26326 35.1441 6.96544 40.148 6.96144ZM40.148 6.69388e-06C34.5387 -0.00340464 29.0078 1.29709 24.0055 3.79565C19.0032 6.2942 14.6708 9.92022 11.361 14.3786C8.05108 18.837 5.85724 24.0017 4.95798 29.4525C4.05873 34.9033 4.47946 40.4861 6.18595 45.7466C2.87887 48.3423 0.716325 52.0939 0.148666 56.2201C-0.418992 60.3462 0.65199 64.529 3.13858 67.8972C5.62518 71.2654 9.33571 73.5595 13.4975 74.3018C17.6592 75.044 21.9514 74.1772 25.4803 71.8818C27.3857 73.8284 29.6703 75.3769 32.1974 76.4345C34.7245 77.4921 37.4424 78.0372 40.1884 78.0372C42.9344 78.0372 45.6522 77.4921 48.1793 76.4345C50.7065 75.3769 52.9911 73.8284 54.8965 71.8818C58.4267 74.0444 62.6585 74.8086 66.7385 74.0201C70.8185 73.2316 74.4429 70.9492 76.8807 67.6332C79.3184 64.3173 80.3881 60.2146 79.8739 56.1527C79.3597 52.0908 77.2999 48.3721 74.11 45.7466C75.8165 40.4861 76.2372 34.9033 75.3379 29.4525C74.4387 24.0017 72.2448 18.837 68.935 14.3786C65.6251 9.92022 61.2927 6.2942 56.2904 3.79565C51.2881 1.29709 45.7573 -0.00340464 40.148 6.69388e-06Z" fill="#E84D37"/>
<path d="M63.6143 78.3758C60.8327 78.3698 58.082 77.8011 55.5329 76.7051C55.1591 77.0034 54.7652 77.2719 54.3712 77.5504L54.9066 78.0675L50.9669 81.9461L49.2799 80.2853C48.5829 80.5538 47.8758 80.7924 47.1485 81.0013L49.5325 83.3483L45.6029 87.2268L41.643 83.3483L43.2088 81.8068C42.2036 81.9331 41.1916 81.9995 40.1783 82.0057C39.1953 82.0035 38.2135 81.9404 37.2387 81.8168L38.7943 83.3483L34.8547 87.2268L30.915 83.3483L33.2788 81.0212C32.5597 80.8184 31.8516 80.5794 31.1574 80.3051L29.4603 81.9461L25.4803 78.0675L25.9752 77.5802C25.5611 77.2918 25.157 77.0134 24.763 76.7051C22.2139 77.8011 19.4633 78.3698 16.6816 78.3758C16.4796 78.3758 16.2776 78.3758 16.0755 78.3758C15.9989 78.9179 16.0543 79.4701 16.2372 79.9869L36.8245 136.792C36.8471 136.86 36.8741 136.927 36.9053 136.991C36.9328 137.06 36.9666 137.127 37.0063 137.19C37.077 137.329 37.1578 137.459 37.2387 137.588L37.3296 137.717C37.4539 137.881 37.5925 138.034 37.7437 138.175L37.8448 138.254L38.2387 138.552L38.4206 138.652C38.5604 138.728 38.7056 138.795 38.8549 138.851H38.9661L39.3701 138.95H39.5318C39.9059 139.017 40.289 139.017 40.6631 138.95H40.8349L41.2288 138.851H41.4006C41.5458 138.793 41.6875 138.726 41.8248 138.652L42.0067 138.543C42.1485 138.461 42.2806 138.364 42.4006 138.254L42.5118 138.175C42.6603 138.032 42.7987 137.879 42.9259 137.717L43.0067 137.588C43.0971 137.461 43.1781 137.328 43.2492 137.19L43.431 136.792L64.0588 79.9571C64.2464 79.4413 64.3019 78.8879 64.2204 78.346C64.0183 78.346 63.8668 78.3758 63.6143 78.3758ZM49.4719 93.9197L45.5322 97.7982L41.643 93.9197L45.5726 90.0412L49.4719 93.9197ZM36.2487 99.2005L40.1884 95.3219L44.128 99.2005L40.1884 103.079L36.2487 99.2005ZM44.128 109.772L40.1884 113.65L36.2487 109.772L40.1884 105.893L44.128 109.772ZM40.1884 84.7605L44.128 88.639L40.1884 92.4877L36.2487 88.6091L40.1884 84.7605ZM38.764 93.9197L34.8244 97.7982L30.8847 93.9197L34.8244 90.0412L38.764 93.9197ZM23.7023 79.8576L24.0862 79.4797L28.0259 83.3483L25.7732 85.5262L23.7023 79.8576ZM26.4904 87.6445L29.4199 84.7605L33.3495 88.639L29.4603 92.4877L27.6521 90.7075L26.4904 87.6445ZM29.3492 95.4711L29.4603 95.3617L33.3899 99.2402L31.4201 101.229L29.3492 95.4711ZM33.5616 107.156L32.1272 103.178L34.7839 100.573L38.7236 104.451L34.8244 108.4L33.5616 107.156ZM37.0265 116.723L35.1375 111.532L38.7236 115.053L37.0265 116.723ZM40.1076 125.236L37.7741 118.792L40.148 116.455L42.4613 118.732L40.1076 125.236ZM43.2189 116.664L41.643 115.053L45.0877 111.651L43.2189 116.664ZM46.6939 107.286L45.5524 108.4L41.643 104.481L45.5726 100.613L48.1687 103.159L46.6939 107.286ZM48.9365 101.09L47.0272 99.2005L50.9669 95.3219V95.3717L48.9365 101.09ZM52.6438 90.8567L50.9265 92.4877L46.9868 88.6091L50.9265 84.7306L53.7651 87.5848L52.6438 90.8567ZM54.5429 85.5262L52.3508 83.3582L56.2905 79.4797L56.6138 79.7979L54.5429 85.5262Z" fill="#E84D37"/>
</svg>
